<?xml version="1.0" encoding="utf-8"?>
<!-- Svg Vector Icons : http://www.onlinewebfonts.com/icon -->
<!DOCTYPE svg PUBLIC "-//W3C//DTD SVG 1.1//EN" "http://www.w3.org/Graphics/SVG/1.1/DTD/svg11.dtd">
<svg version="1.1" xmlns="http://www.w3.org/2000/svg" xmlns:xlink="http://www.w3.org/1999/xlink" x="0px" y="0px" viewBox="0 0 1000 1000" enable-background="new 0 0 1000 1000" xml:space="preserve">
<metadata> Svg Vector Icons : http://www.onlinewebfonts.com/icon </metadata>
<g><g transform="translate(0.000000,512.000000) scale(0.100000,-0.100000)"><path d="M6693.2,4979.3c-482.8-143.7-877.5-360.2-1159.2-641.9c-331.5-329.6-488.6-726.2-509.7-1281.8l-11.5-274l84.3,13.4c390.9,59.4,850.7,249.1,1151.5,473.3c429.2,316.1,638,728.1,661,1299.1c9.6,247.2-9.6,442.6-42.2,452.2C6856.1,5023.3,6779.4,5004.2,6693.2,4979.3z"/><path d="M6482.4,2643.6c-203.1-32.6-377.4-86.2-634.2-195.4c-741.5-314.2-846.9-316.1-1519.4-40.2c-452.2,185.9-749.2,241.4-1109.4,205c-549.9-55.6-933.1-241.4-1343.1-651.5c-415.8-415.8-689.8-923.5-806.7-1492.6c-49.8-243.3-69-862.2-38.3-1182.2c82.4-806.7,323.8-1613.3,693.6-2324.1c505.8-969.5,1140-1609.5,1712.9-1726.3c226.1-46,450.3,0,996.3,210.8c321.9,124.6,513.5,174.4,730,185.8c252.9,13.4,398.5-19.2,831.6-185.8c685.9-268.2,913.9-287.4,1224.4-111.2c134.1,76.7,530.7,394.7,678.3,544.2c268.3,270.2,574.8,764.5,846.9,1368c128.4,283.6,247.2,574.8,237.6,582.5c-3.8,1.9-65.1,32.6-136,67.1c-262.5,126.5-597.8,421.5-776,684C7906.1-1177,7762.4-834,7689.6-508.2c-23,95.8-32.6,229.9-34.5,410c0,231.8,5.8,293.1,49.8,450.3c65.1,235.7,145.6,410,279.7,613.1c122.6,185.9,431.1,511.6,597.8,634.2c95.8,69,109.2,86.2,93.9,116.9c-36.4,69-371.7,392.8-515.4,500.1c-279.7,205-565.2,331.5-906.3,398.5C7003.6,2662.8,6677.9,2676.2,6482.4,2643.6z"/></g></g>
</svg>